<svg xmlns="http://www.w3.org/2000/svg" width="28" height="28" viewBox="0 0 28 28">
    <defs>
        <style>
            .cls-1{fill:#dd3030;opacity:0}.cls-2{fill:#fff}
        </style>
    </defs>
    <g id="Group_196" data-name="Group 196" transform="translate(-1515 -4505)">
        <path id="Rectangle_45" d="M0 0h28v28H0z" class="cls-1" data-name="Rectangle 45" transform="translate(1515 4505)"/>
        <path id="facebook" d="M18.989 0H3.259A3.263 3.263 0 0 0 0 3.259v15.73a3.263 3.263 0 0 0 3.259 3.259H9.82v-7.865H7.213v-3.911H9.82V7.821a3.915 3.915 0 0 1 3.911-3.911h3.954v3.911h-3.954v2.651h3.954l-.652 3.911h-3.3v7.865h5.258a3.263 3.263 0 0 0 3.259-3.259V3.259A3.263 3.263 0 0 0 18.989 0zm0 0" class="cls-2" transform="translate(1518 4508)"/>
    </g>
</svg>
