<?xml version="1.0" encoding="utf-8"?>
<!-- Generator: Adobe Illustrator 24.0.0, SVG Export Plug-In . SVG Version: 6.00 Build 0)  -->
<svg version="1.1" id="Camada_1" xmlns="http://www.w3.org/2000/svg" xmlns:xlink="http://www.w3.org/1999/xlink" x="0px" y="0px"
	 viewBox="0 0 350 310" style="enable-background:new 0 0 350 310;" xml:space="preserve">
<style type="text/css">
	.st0{fill:#CC4C4C;fill-opacity:0;}
	.st1{opacity:0.5;fill:#D0EAA7;}
	.st2{fill:none;stroke:#548E54;stroke-width:3;stroke-linecap:round;stroke-linejoin:round;}
	.st3{fill:#548E54;stroke:#548E54;}
	.st4{fill:#548E54;}
</style>
<g id="Group_193" transform="translate(-986 -2234)">
	<path id="Rectangle_43" class="st0" d="M986,2234h350v310H986V2234z"/>
	<g id="Group_136" transform="translate(0 83)">
		<path id="Path_59" class="st1" d="M1263.1,2391.1c-32.5,7-62.9-20.1-106.6-37.7c-43.7-17.7-137.9,25-150.3-31.5
			c-12.5-56.5,123.7-157.7,225.8-77S1295.6,2384,1263.1,2391.1z"/>
		<g id="Group_98" transform="translate(1063 2220.489)">
			<g id="Group_95">
				<path id="Path_115" class="st2" d="M105.7,60L88.7,43.1V23.3C88.7,15,82,8.2,73.6,8.2l0,0H26.1C17.8,8.2,11,15,11,23.3l0,0v33.3
					c0,8.4,6.8,15.1,15.1,15.1h47.5c7,0,13.2-4.9,14.7-11.7H105.7z"/>
				<path id="Path_116" class="st2" d="M102.4,142.5l16.9,16.9v19.8c0,8.4,6.8,15.1,15.1,15.1h47.5c8.4,0,15.1-6.8,15.1-15.1v-33.3
					c0-8.4-6.8-15.1-15.1-15.1h-47.5c-7,0-13.1,4.9-14.7,11.7H102.4z"/>
				<path id="Path_130" class="st3" d="M165.9,156.6l-7.9,7.9l-3.7-3.7c-1.2-1.2-3-1.2-4.2,0s-1.2,3,0,4.2l5.7,5.7
					c1.2,1.2,3,1.2,4.2,0l9.9-9.9c1.2-1.1,1.2-3,0-4.2C169,155.5,167.1,155.5,165.9,156.6C165.9,156.6,165.9,156.6,165.9,156.6
					L165.9,156.6z"/>
				<g id="Group_92" transform="translate(40.871 23.512)">
					<path id="Path_131" class="st4" d="M2.9,12.9c1.6,0,2.9-1.3,2.9-2.9c0-2.3,1.9-4.2,4.2-4.2c2.3,0,4.2,1.9,4.2,4.2
						c0,2-1.4,3.7-3.3,4.1c-2.2,0.5-3.8,2.5-3.8,4.8v1.5c0,1.6,1.3,2.9,2.9,2.9s2.9-1.3,2.9-2.9l0,0v-0.8c5.3-1.6,8.3-7.2,6.7-12.5
						C18,1.8,12.4-1.2,7.1,0.4C2.9,1.7,0,5.6,0,10C0,11.6,1.3,12.9,2.9,12.9z"/>
					<path id="Path_132" class="st4" d="M10,26.5c-1.6,0-2.9,1.3-2.9,2.9s1.3,2.9,2.9,2.9s2.9-1.3,2.9-2.9c0-0.8-0.3-1.5-0.8-2
						C11.5,26.8,10.8,26.5,10,26.5z"/>
				</g>
				<g id="Group_93" transform="translate(103.97)">
					<path id="Subtraction_1" class="st2" d="M93.1,102.9H0V86.8c0-16.5,12.8-30.2,29.2-31.3l17.3,17.3l17.3-17.3
						c16.5,1.1,29.2,14.8,29.2,31.3V102.9L93.1,102.9z"/>
					<path id="Path_124" class="st2" d="M67,11.7V35c0,11.3-9.2,20.5-20.5,20.5S26.1,46.3,26.1,35V17.2l20.5-5.4L67,11.7z"/>
					<path id="Path_123" class="st4" d="M41.3,0h27.3v13.5c0,7-5.7,12.7-12.7,12.7H24.5v-9.5C24.5,7.5,32,0,41.3,0
						C41.3,0,41.3,0,41.3,0z"/>
				</g>
				<g id="Group_96" transform="translate(0 103.096)">
					<path id="Subtraction_1-2" class="st2" d="M93.1,102.9H0V86.8c0-16.5,12.8-30.2,29.2-31.3l17.3,17.3l17.3-17.3
						c16.5,1.1,29.2,14.8,29.2,31.3V102.9L93.1,102.9z"/>
					<path id="Path_124-2" class="st2" d="M67,11.7V35c0,11.3-9.2,20.5-20.5,20.5S26.1,46.3,26.1,35V17.2l20.5-5.4L67,11.7z"/>
					<path id="Path_123-2" class="st4" d="M41.3,0h27.3v13.5c0,7-5.7,12.7-12.7,12.7H24.5v-9.5C24.5,7.5,32,0,41.3,0
						C41.3,0,41.3,0,41.3,0z"/>
				</g>
			</g>
		</g>
	</g>
</g>
</svg>
