<?xml version="1.0" encoding="utf-8"?>
<!-- Generator: Adobe Illustrator 24.0.0, SVG Export Plug-In . SVG Version: 6.00 Build 0)  -->
<svg version="1.1" id="Camada_1" xmlns="http://www.w3.org/2000/svg" xmlns:xlink="http://www.w3.org/1999/xlink" x="0px" y="0px"
	 viewBox="0 0 170 170" style="enable-background:new 0 0 170 170;" xml:space="preserve">
<style type="text/css">
	.st0{fill:#E55454;fill-opacity:0;}
	.st1{opacity:0.5;fill:#DAF3B2;enable-background:new    ;}
	.st2{fill:#548E54;stroke:#548E54;stroke-miterlimit:10;}
	.st3{fill:#548E54;}
	.st4{fill:none;stroke:#548E54;stroke-width:3.6;stroke-linecap:round;}
</style>
<g id="Group_183" transform="translate(-840 -796)">
	<path id="Rectangle_36" class="st0" d="M840,796h170v170H840V796z"/>
	<g id="Group_180">
		<path id="Path_59" class="st1" d="M953,933.3c-9.3-1.9-18.7-11.6-29.4-27c-10.6-15.4-70.2-20.8-57.4-52.4
			c12.8-31.5,84.9-22.5,102.5,27.1C986.2,930.6,962.4,935.2,953,933.3z"/>
		<g id="Group_54" transform="translate(-4 21.199)">
			<g id="Group_47" transform="translate(193)">
				<g id="hand" transform="translate(699.499 819.97)">
					<path id="Path_52" class="st2" d="M34.7,20c0,11,8.9,20,20,20s20-8.9,20-20s-8.9-20-20-20l0,0C43.6,0,34.7,9,34.7,20L34.7,20z
						 M71,20c0,9-7.3,16.3-16.3,16.4c-9,0-16.3-7.3-16.3-16.3S45.6,3.6,54.6,3.6l0,0C63.7,3.6,71,11,71,20L71,20z"/>
					<path id="Path_53" class="st3" d="M21.4,92.5c0.7,0.7,1.9,0.7,2.6,0l8.8-8.7c1.5-1.5,2-3.7,1.3-5.6l1.9-1.8
						c1-1,2.4-1.5,3.8-1.5h24.1c4.3,0,8.4-1.7,11.4-4.6c0.1-0.1-1,1.2,16.5-19.7C94.4,47.5,94,43,91,40.4c-3.1-2.6-7.6-2.2-10.2,0.8
						L70,52.1c-1.4-1.7-3.5-2.7-5.6-2.7H44.1c-2.9-1.2-6-1.8-9.1-1.8c-8.7,0-16.4,4-20.5,11.6c-1.8-0.3-3.6,0.2-4.9,1.5L1,69.4
						c-0.7,0.7-0.7,1.9,0,2.6L21.4,92.5z M35,51.2c2.8,0,5.5,0.6,8,1.7c0.2,0.1,0.5,0.2,0.7,0.2h20.6c2,0,3.6,1.6,3.6,3.6
						s-1.6,3.6-3.6,3.6H49.5c-1,0-1.8,0.8-1.8,1.8s0.8,1.8,1.8,1.8h14.8c4,0,7.3-3.2,7.3-7.2c0-0.3,0-0.6-0.1-1
						C81.9,45,83.3,43.5,83.4,43.5c1.3-1.6,3.6-1.8,5.1-0.5s1.8,3.6,0.5,5.1l-0.1,0.1L72.7,67.7c-2.4,2.3-5.5,3.5-8.8,3.5H39.8
						c-2.4,0-4.6,0.9-6.3,2.5L32,75.2L17.7,61C21,54.8,27.3,51.2,35,51.2L35,51.2z M12.2,63.3c0.6-0.6,1.5-0.7,2.2-0.3
						c0.3,0.2-0.6-0.6,15.7,15.7c0.7,0.7,0.7,1.8,0,2.6l-7.5,7.4l-17.8-18L12.2,63.3z"/>
					<path id="Path_54" class="st4" d="M64.8,21.1c0,5.4-4.4,9.8-9.8,9.8s-9.8-4.4-9.8-9.8"/>
				</g>
			</g>
		</g>
	</g>
</g>
</svg>
