<?xml version="1.0" encoding="utf-8"?>
<!-- Generator: Adobe Illustrator 24.0.0, SVG Export Plug-In . SVG Version: 6.00 Build 0)  -->
<svg version="1.1" id="Camada_1" xmlns="http://www.w3.org/2000/svg" xmlns:xlink="http://www.w3.org/1999/xlink" x="0px" y="0px"
	 viewBox="0 0 170 170" style="enable-background:new 0 0 170 170;" xml:space="preserve">
<style type="text/css">
	.st0{fill:#E55454;fill-opacity:0;}
	.st1{opacity:0.5;fill:#E8E2B2;enable-background:new    ;}
	.st2{fill:#548E54;}
</style>
<g id="Group_185" transform="translate(-459 -796)">
	<path id="Rectangle_34" class="st0" d="M459,796h170v170H459V796z"/>
	<g id="Group_141" transform="translate(0 3)">
		<path id="Path_59" class="st1" d="M604.6,891.1c-7.5,9.7-23.4,14.1-45.9,16s-59.3,47.3-76.1,20.6c-16.9-26.7,14-104.8,76.5-91.2
			S612.2,881.4,604.6,891.1z"/>
		<g id="Group_58" transform="translate(-9 17)">
			<g id="Group_45" transform="translate(21.733)">
				<g id="resume" transform="translate(486.869 811.519)">
					<g id="Group_22" transform="translate(.007 5.205)">
						<g id="Group_21">
							<path id="Path_31" class="st2" d="M70,21.7c1,0,1.7-0.8,1.7-1.8V5.4c0.1-2.9-2.2-5.3-5.1-5.4H5.1C2.2,0.1-0.1,2.5,0,5.4V79
								c-0.1,2.9,2.2,5.3,5.1,5.4h61.6c2.9-0.1,5.2-2.5,5.1-5.4V68.5c0.1-0.9-0.6-1.7-1.6-1.8s-1.7,0.6-1.8,1.6c0,0.1,0,0.1,0,0.2
								V79c0,1-0.7,1.8-1.7,1.8H5.1c-1,0-1.7-0.8-1.7-1.8V5.4c0-1,0.7-1.8,1.7-1.8h61.6c1,0,1.7,0.8,1.7,1.8v14.4
								C68.3,20.8,69.1,21.6,70,21.7z"/>
						</g>
					</g>
					<g id="Group_26" transform="translate(34.245 57.115)">
						<g id="Group_25">
							<path id="Path_33" class="st2" d="M11.6,0H1.8C0.8,0,0,0.8,0,1.8s0.8,1.8,1.8,1.8l0,0h9.8c1,0,1.8-0.8,1.8-1.8
								C13.4,0.8,12.6,0,11.6,0z"/>
						</g>
					</g>
					<g id="Group_28" transform="translate(19.01 46.999)">
						<g id="Group_27">
							<path id="Path_34" class="st2" d="M27.5,0H1.8C0.8,0,0,0.8,0,1.8s0.8,1.8,1.8,1.8h25.6c1,0,1.8-0.8,1.8-1.8
								C29.3,0.8,28.5,0,27.5,0z"/>
						</g>
					</g>
					<g id="Group_30" transform="translate(19.01 36.884)">
						<g id="Group_29">
							<path id="Path_35" class="st2" d="M27.5,0H1.8C0.8,0,0,0.8,0,1.8s0.8,1.8,1.8,1.8h25.6c1,0,1.8-0.8,1.8-1.8
								C29.3,0.8,28.5,0,27.5,0z"/>
						</g>
					</g>
					<g id="Group_32" transform="translate(12.882 26.769)">
						<g id="Group_31">
							<path id="Path_36" class="st2" d="M3.1,0.5c-0.7-0.7-1.8-0.7-2.5,0s-0.7,1.8,0,2.5s1.8,0.7,2.5,0c0.3-0.3,0.5-0.8,0.5-1.3
								C3.6,1.3,3.4,0.9,3.1,0.5z"/>
						</g>
					</g>
					<g id="Group_34" transform="translate(12.882 36.884)">
						<g id="Group_33">
							<path id="Path_37" class="st2" d="M3.1,0.5c-0.7-0.7-1.8-0.7-2.5,0s-0.7,1.8,0,2.5s1.8,0.7,2.5,0c0.3-0.3,0.5-0.8,0.5-1.3
								C3.6,1.3,3.4,0.9,3.1,0.5z"/>
						</g>
					</g>
					<g id="Group_36" transform="translate(12.882 46.999)">
						<g id="Group_35">
							<path id="Path_38" class="st2" d="M3.1,0.5c-0.7-0.7-1.8-0.7-2.5,0s-0.7,1.8,0,2.5s1.8,0.7,2.5,0c0.3-0.3,0.5-0.8,0.5-1.3
								C3.6,1.3,3.4,0.9,3.1,0.5z"/>
						</g>
					</g>
					<g id="Group_38" transform="translate(19.01 26.769)">
						<g id="Group_37">
							<path id="Path_39" class="st2" d="M27.5,0H1.8C0.8,0,0,0.8,0,1.8s0.8,1.8,1.8,1.8h25.6c1,0,1.8-0.8,1.8-1.8
								C29.3,0.8,28.5,0,27.5,0z"/>
						</g>
					</g>
					<g id="Group_40" transform="translate(48.882 22.52)">
						<g id="Group_39">
							<path id="Path_40" class="st2" d="M34.9,1c-3.6-2.1-8.3-0.9-10.4,2.8l0,0L1.8,43.2c-0.1,0.2-0.2,0.5-0.2,0.7L0,58.2
								c-0.1,1,0.6,1.9,1.6,2c0.5,0.1,0.9-0.1,1.3-0.3l11.6-8.6c0.2-0.1,0.4-0.3,0.5-0.6l22.7-39.4C39.8,7.8,38.6,3.1,34.9,1z
								 M4.1,54.5L4.9,47l5.2,3L4.1,54.5z M12.8,47.4l-6.9-4l18.2-31.6l6.9,4L12.8,47.4z M34.6,9.6l-1.8,3.1l-6.9-4l1.8-3.1
								c1.1-1.9,3.5-2.5,5.4-1.4C35,5.3,35.7,7.7,34.6,9.6z"/>
						</g>
					</g>
				</g>
			</g>
		</g>
	</g>
</g>
</svg>
