<?xml version="1.0" encoding="utf-8"?>
<!-- Generator: Adobe Illustrator 24.0.0, SVG Export Plug-In . SVG Version: 6.00 Build 0)  -->
<svg version="1.1" id="Camada_1" xmlns="http://www.w3.org/2000/svg" xmlns:xlink="http://www.w3.org/1999/xlink" x="0px" y="0px"
	 viewBox="0 0 170 170" style="enable-background:new 0 0 170 170;" xml:space="preserve">
<style type="text/css">
	.st0{fill:#E55454;fill-opacity:0;}
	.st1{opacity:0.5;fill:#D2CDD4;enable-background:new    ;}
	.st2{fill:none;stroke:#548E54;stroke-width:3.6;stroke-linecap:round;stroke-linejoin:round;}
	.st3{fill:none;stroke:#548E54;stroke-width:3.6;stroke-miterlimit:10;}
</style>
<g id="Group_182" transform="translate(-1034 -796)">
	<path id="Rectangle_37" class="st0" d="M1034,796h170v170h-170V796z"/>
	<g id="Group_144" transform="translate(1050.086 816.205)">
		<path id="Path_59" class="st1" d="M121.3,57.9c-4.2,10.8-16.5,18.9-34.7,26.4c-18.3,7.5-39.1,58.6-58.9,38.3s-10.9-100,44-103.4
			S125.5,47,121.3,57.9z"/>
		<g id="Group_53" transform="translate(18.271 18.295)">
			<g id="Group_52">
				<g id="Group_51">
					<path id="Path_65" class="st2" d="M45.7,20.9c-16,2.4-24.1,12.4-30.1,20.7c-3.8,5.2-6.8,9.9-7.7,13.6c-0.6,2.4,0.9,4.7,3.2,5.3
						l0,0c1.9,0.5,3.8-0.3,4.8-2C18.7,53.9,27,42,33.2,40.8"/>
					<path id="Path_66" class="st2" d="M48.8,45.6L29.1,55c-2.6,1.1-3.9,4-2.8,6.6v0.1c1.1,2.4,3.9,3.5,6.4,2.6l24.5-7.8
						c0,0,15.1,12.1,30,8h10.3V45.3H90c0,0-14.1-20.8-31.8-24.4"/>
					<path id="Path_67" class="st3" d="M30.5,65.3l-8,12.7l-8,5.8c-0.7,0.5-1.8,0.4-2.3-0.4c-0.3-0.4-0.4-0.8-0.3-1.2l1.6-9.8
						L57.6,1.8C58.8,0,61.2-0.5,63,0.6l2.4,1.5c1.8,1.1,2.4,3.5,1.2,5.3l0,0L40.1,49.8"/>
					<path id="Line_1" class="st2" d="M0,85.8h81.5"/>
					<path id="Line_2" class="st2" d="M87.3,85.8H102"/>
				</g>
			</g>
		</g>
	</g>
</g>
</svg>
