<?xml version="1.0" encoding="utf-8"?>
<!-- Generator: Adobe Illustrator 24.0.0, SVG Export Plug-In . SVG Version: 6.00 Build 0)  -->
<svg version="1.1" id="Camada_1" xmlns="http://www.w3.org/2000/svg" xmlns:xlink="http://www.w3.org/1999/xlink" x="0px" y="0px"
	 viewBox="0 0 170 170" style="enable-background:new 0 0 170 170;" xml:space="preserve">
<style type="text/css">
	.st0{fill:#E55454;fill-opacity:0;}
	.st1{opacity:0.5;fill:#E8E2B2;enable-background:new    ;}
	.st2{fill:none;}
	.st3{fill:none;stroke:#548E54;stroke-width:3;stroke-linecap:round;stroke-linejoin:round;}
</style>
<g id="Group_181" transform="translate(-1034 -1056)">
	<path id="Path_301" class="st0" d="M1034,1056h170v170h-170V1056z"/>
	<g id="Group_177" transform="translate(0 -11)">
		<g id="Group_149">
			<path id="Path_59" class="st1" d="M1075.7,1118.2c10.5-3.3,24.3,1.5,41.7,11.6c17.4,10.1,67.7-4.8,66.2,23.6s-64.5,70.5-103,28.5
				S1065.2,1121.5,1075.7,1118.2z"/>
			<g id="Group_84" transform="translate(0 6)">
				<g id="Group_67" transform="translate(811 -10)">
					<g id="Group_66" transform="translate(-11 5.296)">
						<g id="Rectangle_13" transform="translate(283 1108.704)">
							<path class="st2" d="M6,0h65c3.3,0,6,2.7,6,6v79c0,3.3-2.7,6-6,6H6c-3.3,0-6-2.7-6-6V6C0,2.7,2.7,0,6,0z"/>
							<path class="st3" d="M6,1.8h65c2.3,0,4.2,1.9,4.2,4.2v79c0,2.3-1.9,4.2-4.2,4.2H6c-2.3,0-4.2-1.9-4.2-4.2V6
								C1.8,3.7,3.7,1.8,6,1.8z"/>
						</g>
						<path id="Path_68" class="st3" d="M313.8,1128.4h32.9"/>
						<path id="Path_89" class="st3" d="M313.8,1144.4h32.9"/>
						<path id="Path_91" class="st3" d="M313.8,1160.4h32.9"/>
						<path id="Path_93" class="st3" d="M295.3,1176.4h51.4"/>
						<path id="Path_73" class="st3" d="M295.3,1125.4v5.5l10-4.7"/>
						<path id="Path_88" class="st3" d="M295.3,1141.4v5.5l10-4.7"/>
						<path id="Path_90" class="st3" d="M295.3,1157.4v5.5l10-4.7"/>
					</g>
				</g>
			</g>
		</g>
	</g>
</g>
</svg>
