<?xml version="1.0" encoding="utf-8"?>
<!-- Generator: Adobe Illustrator 24.0.0, SVG Export Plug-In . SVG Version: 6.00 Build 0)  -->
<svg version="1.1" id="Camada_1" xmlns="http://www.w3.org/2000/svg" xmlns:xlink="http://www.w3.org/1999/xlink" x="0px" y="0px"
	 viewBox="0 0 170 170" style="enable-background:new 0 0 170 170;" xml:space="preserve">
<style type="text/css">
	.st0{fill:#E55454;fill-opacity:0;}
	.st1{opacity:0.5;fill:#E5CEBC;enable-background:new    ;}
	.st2{fill:none;}
	.st3{fill:none;stroke:#548E54;stroke-width:3.6;}
	.st4{fill:none;stroke:#548E54;stroke-width:3.6;stroke-linecap:round;stroke-linejoin:round;}
	.st5{fill:none;stroke:#548E54;stroke-width:3.6;stroke-linecap:round;}
</style>
<g id="Group_187" transform="translate(-246 -1056)">
	<path id="Rectangle_38" class="st0" d="M246,1056h170v170H246V1056z"/>
	<g id="Group_145" transform="translate(0 -4)">
		<path id="Path_59" class="st1" d="M384.2,1178.1c-10.3,6.7-26.7,5.7-48.6,0.2s-71.4,25.4-78.7-5.3c-7.3-30.7,47.3-94.6,102-61.4
			S394.5,1171.4,384.2,1178.1z"/>
		<g id="Group_67" transform="translate(0 -16)">
			<g id="Group_66" transform="translate(0 5.296)">
				<g id="Rectangle_13" transform="translate(284 1108.704)">
					<path class="st2" d="M6,0h65c3.3,0,6,2.7,6,6v79c0,3.3-2.7,6-6,6H6c-3.3,0-6-2.7-6-6V6C0,2.7,2.7,0,6,0z"/>
					<path class="st3" d="M6,1.8h65c2.3,0,4.2,1.9,4.2,4.2v79c0,2.3-1.9,4.2-4.2,4.2H6c-2.3,0-4.2-1.9-4.2-4.2V6
						C1.8,3.7,3.7,1.8,6,1.8z"/>
				</g>
				<g id="Rectangle_15">
					<path class="st2" d="M294,1139.7h11v11h-11V1139.7z"/>
					<path class="st4" d="M295.8,1141.5h7.4v7.4h-7.4V1141.5z"/>
				</g>
				<g id="Rectangle_16">
					<path class="st2" d="M294,1156.7h11v11h-11V1156.7z"/>
					<path class="st4" d="M295.8,1158.5h7.4v7.4h-7.4V1158.5z"/>
				</g>
				<path id="Path_68" class="st5" d="M313.8,1128.4h32.9"/>
				<path id="Path_69" class="st5" d="M313.8,1145.4h32.9"/>
				<path id="Path_70" class="st5" d="M313.8,1162.4h32.9"/>
				<path id="Path_71" class="st5" d="M295.9,1176.6h32.9"/>
				<path id="Path_72" class="st5" d="M295.9,1185.1h32.9"/>
				<path id="Path_73" class="st4" d="M295.3,1125.4v5.5l10-4.7"/>
			</g>
		</g>
	</g>
</g>
</svg>
