<?xml version="1.0" encoding="utf-8"?>
<!-- Generator: Adobe Illustrator 24.0.0, SVG Export Plug-In . SVG Version: 6.00 Build 0)  -->
<svg version="1.1" id="Camada_1" xmlns="http://www.w3.org/2000/svg" xmlns:xlink="http://www.w3.org/1999/xlink" x="0px" y="0px"
	 viewBox="0 0 170 170" style="enable-background:new 0 0 170 170;" xml:space="preserve">
<style type="text/css">
	.st0{fill:#E55454;fill-opacity:0;}
	.st1{opacity:0.5;fill:#D2E9D5;enable-background:new    ;}
	.st2{fill:#548E54;}
	.st3{fill:#469146;}
</style>
<g id="Group_186" transform="translate(-245 -796)">
	<path id="Rectangle_33" class="st0" d="M245,796h170v170H245V796z"/>
	<g id="Group_179" transform="translate(0 -4.951)">
		<path id="Path_59" class="st1" d="M357.7,931.3c-10.6,0.8-22.7-7.3-37-21.2s-64.9-11.4-57.6-38.7s75.4-53.4,103.2-3.3
			C393.9,918.1,368.3,930.5,357.7,931.3z"/>
		<g id="Group_59" transform="translate(270.995 832.912)">
			<g id="pencil">
				<g id="Group_18">
					<g id="Group_17">
						<path id="Path_29" class="st2" d="M88.8,14.7H78.5v-4.6c0-3.6-2.9-6.4-6.4-6.4C71,3.7,69.9,4,69,4.5c-1.1-3.4-4.7-5.2-8.1-4.2
							c-1,0.3-1.9,0.9-2.6,1.6V1.8c-2.5-2.5-6.6-2.5-9.1,0c0,0,0,0-0.1,0.1c-2.5-2.5-6.6-2.6-9.1-0.1c-1.3,1.2-2,2.9-2,4.6v8.3H16.6
							c-0.1,0-0.1,0-0.2,0h-0.1h-0.1h-0.1H16h-0.1c0,0-0.1,0-0.1,0.1l0,0l0,0L1,22.3c-0.9,0.5-1.3,1.6-0.8,2.5
							c0.2,0.4,0.5,0.7,0.8,0.8L15.7,33l0,0l0,0c0,0,0.1,0,0.1,0.1h0.1H16h0.1h0.1h0.1c0.1,0,0.1,0,0.2,0h13
							c0.6,1.7,1.6,3.3,2.9,4.5l6.4,6.4c1.7,1.7,2.7,4.1,2.7,6.5v4.6h-1.8c-1,0-1.8,0.8-1.8,1.8l0,0v25.8c0,1,0.8,1.8,1.8,1.8l0,0
							h36.8c1,0,1.8-0.8,1.8-1.8V57.1c0-1-0.8-1.8-1.8-1.8h-1.8v-5.1c0-2.3,0.5-4.6,1.5-6.6c1.4-2.7,2.1-5.7,2.2-8.8v-1.6h10.3
							c3.1,0,5.5-2.5,5.5-5.5v-7.4C94.3,17.2,91.9,14.7,88.8,14.7z M69.3,10.1c0-1.5,1.2-2.8,2.7-2.8s2.8,1.2,2.8,2.7v0.1v9.2
							c0,1.5-1.3,2.7-2.8,2.7s-2.7-1.2-2.7-2.7V10.1z M60.1,16.6V6.4c0-1.5,1.2-2.8,2.7-2.8c1.5,0,2.8,1.2,2.8,2.7v0.1v12.9
							c0,1.5-1.2,2.8-2.7,2.8c-1.5,0-2.8-1.2-2.8-2.7v-0.1V16.6z M50.8,6.4c0-1.5,1.2-2.8,2.7-2.8s2.8,1.2,2.8,2.7v0.1v8.3h-5.5V6.4
							z M41.6,6.4c0-1.5,1.3-2.7,2.8-2.7s2.7,1.2,2.7,2.7v8.3h-5.5V6.4z M16.1,29L6,24l10.2-5.1C18.3,21.9,18.3,26,16.1,29z
							 M28.7,27.6v0.9c0,0.3,0,0.6,0,0.9h-8.6c1.7-3.5,1.7-7.6,0-11.1h12.5C30.1,20.8,28.7,24.2,28.7,27.6L28.7,27.6z M74.8,81.1
							H41.6V59h33.2V81.1z M74.8,34.7c-0.1,2.5-0.7,5-1.9,7.2c-1.2,2.6-1.8,5.4-1.8,8.2v5.1H45.3v-4.6c0-3.4-1.4-6.7-3.8-9.1
							l-6.4-6.4c-1.7-1.7-2.7-4.1-2.7-6.5v-0.9c0-2,0.7-3.9,1.8-5.5c1.7-2.3,4.5-3.7,7.4-3.7h14.5C55.3,21.8,52.3,24,49,24h-5.5
							c-1,0-1.8,0.8-1.8,1.8c0,0.9,0.6,1.7,1.5,1.8c3,0.5,5.7,2.2,7.5,4.8l0,0c1.3,1.9,2,4.2,2,6.5v3.5c0,1,0.8,1.8,1.8,1.8l0,0
							c1,0,1.8-0.8,1.8-1.9l0,0v-3.5c0-1.9-0.4-3.9-1.1-5.7h19.6V34.7z M83.3,29.5H53.1c-0.6-0.7-1.2-1.4-2-2c2.2-0.4,4.2-1.5,5.7-3
							c0.3-0.3,0.6-0.7,0.9-1.1c2.2,2.8,6.2,3.3,9,1.1c0.2-0.2,0.4-0.4,0.6-0.6c2.5,2.5,6.6,2.6,9.1,0.1c1.2-1.2,1.9-2.9,1.9-4.6
							v-0.9h4.8L83.3,29.5z M90.6,27.6c0,1-0.8,1.8-1.8,1.8H87v-11h1.8c1,0,1.8,0.8,1.8,1.8L90.6,27.6z"/>
					</g>
				</g>
				<g id="Group_20" transform="translate(52.691 62.64)">
					<g id="Group_19">
						<path id="Path_30" class="st3" d="M16.6,0H1.8C0.8,0,0,0.8,0,1.8s0.8,1.8,1.8,1.8h14.7c1,0,1.8-0.8,1.8-1.8S17.6,0,16.6,0z"/>
					</g>
				</g>
			</g>
		</g>
	</g>
</g>
</svg>
