<svg xmlns="http://www.w3.org/2000/svg" width="28" height="28" viewBox="0 0 28 28">
    <defs>
        <style>
            .cls-1{fill:#dd3030;opacity:0}.cls-2{fill:#fff}
        </style>
    </defs>
    <g id="Group_198" data-name="Group 198" transform="translate(-1585 -4505)">
        <path id="Rectangle_47" d="M0 0h28v28H0z" class="cls-1" data-name="Rectangle 47" transform="translate(1585 4505)"/>
        <g id="instagram" transform="translate(1589 4509)">
            <path id="Path_245" d="M17.711 0H3.04A3.043 3.043 0 0 0 0 3.04v14.671a3.043 3.043 0 0 0 3.04 3.04h14.671a3.043 3.043 0 0 0 3.04-3.04V3.04A3.043 3.043 0 0 0 17.711 0zm-7.295 15.806a5.471 5.471 0 1 1 5.471-5.471 5.477 5.477 0 0 1-5.471 5.471zm6.079-9.727a1.824 1.824 0 1 1 1.824-1.824 1.826 1.826 0 0 1-1.824 1.824zm0 0" class="cls-2" data-name="Path 245"/>
            <path id="Path_246" d="M392.988 90a.988.988 0 1 0 .988.988.989.989 0 0 0-.988-.988zm0 0" class="cls-2" data-name="Path 246" transform="translate(-376.494 -86.733)"/>
            <path id="Path_247" d="M154.759 150a2.759 2.759 0 1 0 2.759 2.759 2.762 2.762 0 0 0-2.759-2.759zm0 0" class="cls-2" data-name="Path 247" transform="translate(-144.343 -142.424)"/>
        </g>
    </g>
</svg>
