<svg xmlns="http://www.w3.org/2000/svg" width="28" height="28" viewBox="0 0 28 28">
    <defs>
        <style>
            .cls-1{fill:#dd3030;opacity:0}.cls-2{fill:#fff}
        </style>
    </defs>
    <g id="Group_197" data-name="Group 197" transform="translate(-1548 -4505)">
        <path id="Rectangle_46" d="M0 0h28v28H0z" class="cls-1" data-name="Rectangle 46" transform="translate(1548 4505)"/>
        <path id="twitter" d="M8.722 19.135a20.061 20.061 0 0 1-3.1-.246 14.542 14.542 0 0 1-4.238-1.543L0 16.589l1.5-.489c1.639-.539 2.637-.873 3.871-1.4a5.15 5.15 0 0 1-2.647-3.067l-.349-1.059.286.044a5.2 5.2 0 0 1-.652-.8 4.932 4.932 0 0 1-.837-2.938l.066-.924.553.214a5.174 5.174 0 0 1-.5-1.405 5.348 5.348 0 0 1 .57-3.6l.481-.886.645.774a11.867 11.867 0 0 0 7.688 4.328 4.6 4.6 0 0 1 .279-2.443A4.574 4.574 0 0 1 12.813.807a5.585 5.585 0 0 1 3.242-.8 5.177 5.177 0 0 1 3.183 1.313A10.684 10.684 0 0 0 20.4.935c.255-.1.545-.205.908-.33l1.336-.46-.871 2.488c.057 0 .117-.009.179-.012l1.426-.065-.843 1.152a2.39 2.39 0 0 0-.078.111c-.068.1-.153.23-1.31 1.775a2.179 2.179 0 0 0-.407 1.419 13.423 13.423 0 0 1-.733 5.4 9.554 9.554 0 0 1-2.565 3.8 11.327 11.327 0 0 1-5.369 2.6 16.529 16.529 0 0 1-3.351.322zm0 0" class="cls-2" transform="translate(1550.81 4509.213)"/>
    </g>
</svg>
